<?xml version="1.0" encoding="UTF-8" standalone="no"?>
<!-- Created with Inkscape (http://www.inkscape.org/) -->

<svg
   xmlns:dc="http://purl.org/dc/elements/1.1/"
   xmlns:cc="http://creativecommons.org/ns#"
   xmlns:rdf="http://www.w3.org/1999/02/22-rdf-syntax-ns#"
   xmlns:svg="http://www.w3.org/2000/svg"
   xmlns="http://www.w3.org/2000/svg"
   xmlns:sodipodi="http://sodipodi.sourceforge.net/DTD/sodipodi-0.dtd"
   xmlns:inkscape="http://www.inkscape.org/namespaces/inkscape"
   width="256"
   height="256"
   viewBox="0 0 256 256"
   id="svg2"
   version="1.1"
   inkscape:version="0.91 r13725"
   sodipodi:docname="icon.svg"
   inkscape:export-filename="/home/aperez/icon-16.png"
   inkscape:export-xdpi="11.25"
   inkscape:export-ydpi="11.25">
  <defs
     id="defs4" />
  <sodipodi:namedview
     id="base"
     pagecolor="#ffffff"
     bordercolor="#666666"
     borderopacity="1.0"
     inkscape:pageopacity="0.0"
     inkscape:pageshadow="2"
     inkscape:zoom="3.2304688"
     inkscape:cx="128"
     inkscape:cy="128"
     inkscape:document-units="px"
     inkscape:current-layer="layer1"
     showgrid="false"
     inkscape:snap-bbox="true"
     inkscape:snap-bbox-midpoints="true"
     inkscape:bbox-nodes="true"
     inkscape:window-width="1920"
     inkscape:window-height="1016"
     inkscape:window-x="0"
     inkscape:window-y="27"
     inkscape:window-maximized="1"
     units="px" />
  <metadata
     id="metadata7">
    <rdf:RDF>
      <cc:Work
         rdf:about="">
        <dc:format>image/svg+xml</dc:format>
        <dc:type
           rdf:resource="http://purl.org/dc/dcmitype/StillImage" />
        <dc:title />
      </cc:Work>
    </rdf:RDF>
  </metadata>
  <g
     inkscape:label="Layer 1"
     inkscape:groupmode="layer"
     id="layer1"
     transform="translate(0,-796.36216)">
    <g
       id="g4148"
       transform="matrix(1.014684,0,0,1.0128375,-1.008028,-10.95709)">
      <path
         sodipodi:nodetypes="ccccccccccccc"
         inkscape:connector-curvature="0"
         id="circle3498"
         d="m 67.603072,797.08665 0,0 c -18.482332,0.90727 -33.542503,15.30259 -35.072715,34.04272 l 0,182.36803 0,0 c 0.601735,20.2393 16.902538,36.3329 36.827325,36.3445 20.366357,-2e-4 36.831028,-16.7786 36.831248,-37.4759 l 0,-34.8291 35.13151,0 0,-0.55932 c 47.33162,-2.04878 84.67449,-41.62548 84.70292,-89.76978 -0.0578,-48.12271 -37.3925,-88.07331 -84.70292,-90.12115 z"
         style="fill:#7bc9a4;fill-opacity:1;fill-rule:evenodd;stroke:none;stroke-width:6.17801857;stroke-linecap:butt;stroke-linejoin:miter;stroke-miterlimit:4;stroke-dasharray:none;stroke-opacity:1" />
      <ellipse
         ry="37.47633"
         rx="36.877125"
         cy="834.56299"
         cx="69.407478"
         id="path3488"
         style="fill:#b47bb5;fill-opacity:1;fill-rule:evenodd;stroke:none;stroke-width:6.17801857;stroke-linecap:butt;stroke-linejoin:miter;stroke-miterlimit:4;stroke-dasharray:none;stroke-opacity:1" />
      <path
         sodipodi:nodetypes="ccssssssc"
         inkscape:connector-curvature="0"
         id="circle3492"
         d="m 141.126,899.64821 c -20.36697,-6.5e-4 -36.87805,16.77801 -36.87828,37.47591 0.0163,6.57899 1.46658,13.20616 4.98788,18.72681 17.3235,27.1596 36.99842,55.84347 56.78273,82.29947 6.11846,8.1817 16.62276,11.6889 26.73477,11.6915 20.36697,0.01 37.20517,-16.7807 36.87828,-37.4759 -0.11359,-7.1912 -1.31604,-13.3251 -4.78873,-18.37307 l -51.014,-74.15509 C 166.46516,909.1341 154.87857,899.65463 141.126,899.64821 Z"
         style="fill:#b47bb5;fill-opacity:1;fill-rule:evenodd;stroke:none;stroke-width:6.17801857;stroke-linecap:butt;stroke-linejoin:miter;stroke-miterlimit:4;stroke-dasharray:none;stroke-opacity:1" />
    </g>
  </g>
</svg>
