<?xml version="1.0" encoding="UTF-8" standalone="no"?>
<!-- Created with Inkscape (http://www.inkscape.org/) -->

<svg
   xmlns:dc="http://purl.org/dc/elements/1.1/"
   xmlns:cc="http://creativecommons.org/ns#"
   xmlns:rdf="http://www.w3.org/1999/02/22-rdf-syntax-ns#"
   xmlns:svg="http://www.w3.org/2000/svg"
   xmlns="http://www.w3.org/2000/svg"
   xmlns:sodipodi="http://sodipodi.sourceforge.net/DTD/sodipodi-0.dtd"
   xmlns:inkscape="http://www.inkscape.org/namespaces/inkscape"
   width="16"
   height="16"
   viewBox="0 0 16 16"
   id="svg2"
   version="1.1"
   inkscape:version="0.91 r13725"
   sodipodi:docname="riot-symbolic.svg"
   inkscape:export-filename="/home/aperez/riot-16.png"
   inkscape:export-xdpi="11.25"
   inkscape:export-ydpi="11.25">
  <defs
     id="defs4" />
  <sodipodi:namedview
     id="base"
     pagecolor="#ffffff"
     bordercolor="#666666"
     borderopacity="1.0"
     inkscape:pageopacity="0.0"
     inkscape:pageshadow="2"
     inkscape:zoom="32"
     inkscape:cx="9.9530196"
     inkscape:cy="4.9333814"
     inkscape:document-units="px"
     inkscape:current-layer="layer1"
     showgrid="true"
     inkscape:snap-bbox="true"
     inkscape:snap-bbox-midpoints="true"
     inkscape:bbox-nodes="true"
     inkscape:window-width="1920"
     inkscape:window-height="1016"
     inkscape:window-x="0"
     inkscape:window-y="27"
     inkscape:window-maximized="1"
     units="px"
     showguides="true"
     inkscape:guide-bbox="true"
     inkscape:snap-grids="true">
    <inkscape:grid
       type="xygrid"
       id="grid4142" />
  </sodipodi:namedview>
  <metadata
     id="metadata7">
    <rdf:RDF>
      <cc:Work
         rdf:about="">
        <dc:format>image/svg+xml</dc:format>
        <dc:type
           rdf:resource="http://purl.org/dc/dcmitype/StillImage" />
        <dc:title></dc:title>
      </cc:Work>
    </rdf:RDF>
  </metadata>
  <g
     inkscape:label="Layer 1"
     inkscape:groupmode="layer"
     id="layer1"
     transform="translate(0,-1036.3622)">
    <path
       style="fill:#bebebe;fill-opacity:1;fill-rule:evenodd;stroke:none;stroke-width:6.17801857;stroke-linecap:butt;stroke-linejoin:miter;stroke-miterlimit:4;stroke-dasharray:none;stroke-opacity:1"
       d="M 4.2207031,0 C 3.0505781,0 2,1.1168969 2,2.1542969 L 2,2.5 l 0,11 0,0.171875 C 2,14.953075 3.0707452,15.9992 4.3320312,16 c 0.018213,0 0.036443,-0.0055 0.054688,-0.0059 C 4.42443,15.996951 4.4622001,15.998904 4.5,16 5.4235605,15.999183 6.2714378,15.489255 6.7050781,14.673828 6.8856655,14.371029 6.9999961,14.035037 7,13.671875 L 7,13.5 7,12 l 1.1914062,0 2.2578128,3.259766 c 0.368304,0.5315 1.053245,0.740034 1.693359,0.740234 1.289277,6e-4 2.354678,-1.062947 2.333984,-2.373047 -0.0072,-0.4552 -0.0829,-0.842609 -0.302734,-1.162109 L 12.525391,10.082031 C 13.651611,9.0398318 14.249076,7.3502 14.248047,5.6875 14.245947,2.3097 11.649571,0 8.8867188,0 L 4.5,0 Z m 2.2773438,1 1.8945312,0 c 2.1070229,0 3.3583449,0.6135781 4.2714839,2.3300781 1.127889,1.9633 0.824102,4.3101313 -0.683593,5.9570313 L 10.945312,7.7695312 C 10.47919,7.0920312 9.74557,6.4925875 8.875,6.4921875 c -1.289277,0 -2.3359235,1.0628469 -2.3359375,2.3730469 0.001,0.4165 0.083152,0.8429476 0.3164063,1.1855466 L 7.5019531,11 C 7.0635701,11 6.426556,10.9899 6,11 l 0,2.5 C 6,14.328427 5.3284271,15 4.5,15 3.6715729,15 3,14.328427 3,13.5 L 3,4.4960938 C 3.432251,4.8220437 3.9586286,4.9988736 4.5,5 5.8807119,5 7,3.8807119 7,2.5 6.9994367,1.9588516 6.8232994,1.4324959 6.4980469,1 Z"
       transform="translate(0,1036.3622)"
       id="circle3498"
       inkscape:connector-curvature="0"
       sodipodi:nodetypes="ssccscccccccccccccsscscscccccccccsccccc" />
  </g>
</svg>
